<?xml version="1.0" encoding="utf-8"?>
<!-- Generator: Adobe Illustrator 27.1.1, SVG Export Plug-In . SVG Version: 6.00 Build 0)  -->
<svg version="1.1" id="Layer_1" xmlns="http://www.w3.org/2000/svg" xmlns:xlink="http://www.w3.org/1999/xlink" x="0px" y="0px"
	 viewBox="0 0 322.1 54.5" style="enable-background:new 0 0 322.1 54.5;" xml:space="preserve">
<style type="text/css">
	.st0{fill:#FFFFFF;}
	.st1{fill:#5C4DE5;}
</style>
<g>
	<path class="st0" d="M62.9,41.7c-0.7,0-1.3-0.2-1.8-0.7c-0.5-0.5-0.7-1.1-0.7-1.8v-28c0-0.7,0.2-1.3,0.7-1.8
		c0.5-0.5,1.1-0.7,1.8-0.7h9.1c1.3,0,2.4,0.2,3.5,0.7c1.1,0.5,2,1.1,2.9,1.9c0.8,0.8,1.5,1.8,1.9,2.9c0.5,1.1,0.7,2.3,0.7,3.5
		c0,1.3-0.2,2.5-0.7,3.6c-0.5,1.1-1.2,2.1-2,2.9c1.2,0.9,2.2,2,2.9,3.4c0.7,1.4,1.1,2.8,1.1,4.5c0,1.4-0.3,2.7-0.8,3.8
		C81,37,80.3,38,79.4,38.9c-0.9,0.9-2,1.6-3.2,2.1c-1.2,0.5-2.5,0.7-3.9,0.7H62.9z M65.4,13.7v8.4h6.4c0.6,0,1.1-0.2,1.6-0.4
		c0.5-0.3,0.9-0.6,1.3-1c0.4-0.4,0.6-0.9,0.9-1.4c0.2-0.5,0.3-1,0.3-1.6c0-0.6-0.1-1.1-0.3-1.6c-0.2-0.5-0.5-0.9-0.9-1.3
		c-0.4-0.4-0.8-0.7-1.3-0.9c-0.5-0.2-1-0.3-1.6-0.3H65.4z M65.4,26.8v9.7h6.7c0.7,0,1.3-0.1,2-0.4c0.6-0.3,1.1-0.6,1.6-1.1
		c0.4-0.4,0.8-1,1.1-1.6c0.3-0.6,0.4-1.2,0.4-1.9c0-0.7-0.1-1.3-0.4-1.9c-0.3-0.6-0.6-1.1-1.1-1.5c-0.5-0.4-1-0.8-1.6-1
		s-1.3-0.4-2-0.4H65.4z"/>
	<path class="st0" d="M91.5,39.1c0,0.7-0.2,1.3-0.7,1.8c-0.5,0.5-1.1,0.7-1.8,0.7s-1.3-0.2-1.8-0.7c-0.5-0.5-0.7-1.1-0.7-1.8v-28
		c0-0.7,0.2-1.3,0.7-1.8c0.5-0.5,1.1-0.7,1.8-0.7s1.3,0.2,1.8,0.7c0.5,0.5,0.7,1.1,0.7,1.8V39.1z"/>
	<path class="st0" d="M96.2,24.9c0.6-1.5,1.5-2.8,2.6-3.9c1.1-1.1,2.4-2,3.9-2.6c1.5-0.6,3.1-1,4.8-1c1.7,0,3.3,0.3,4.8,1
		c1.5,0.6,2.8,1.5,3.9,2.6c1.1,1.1,2,2.4,2.6,3.9c0.6,1.5,1,3.1,1,4.8c0,1.7-0.3,3.3-1,4.8c-0.6,1.5-1.5,2.8-2.6,3.9
		c-1.1,1.1-2.4,2-3.9,2.6c-1.5,0.6-3.1,1-4.8,1c-1.7,0-3.3-0.3-4.8-1c-1.5-0.6-2.8-1.5-3.9-2.6c-1.1-1.1-2-2.4-2.6-3.9
		c-0.6-1.5-1-3.1-1-4.8C95.3,27.9,95.6,26.3,96.2,24.9z M101,32.4c0.4,0.9,0.9,1.6,1.5,2.3c0.6,0.6,1.4,1.2,2.3,1.5
		c0.9,0.4,1.8,0.6,2.8,0.6c1,0,1.9-0.2,2.8-0.6c0.9-0.4,1.6-0.9,2.3-1.5c0.6-0.6,1.2-1.4,1.5-2.3c0.4-0.9,0.6-1.8,0.6-2.8
		c0-1-0.2-1.9-0.6-2.8c-0.4-0.9-0.9-1.6-1.5-2.3c-0.6-0.6-1.4-1.2-2.3-1.5c-0.9-0.4-1.8-0.6-2.8-0.6c-1,0-1.9,0.2-2.8,0.6
		c-0.9,0.4-1.6,0.9-2.3,1.5c-0.6,0.6-1.2,1.4-1.5,2.3c-0.4,0.9-0.6,1.8-0.6,2.8C100.4,30.6,100.6,31.6,101,32.4z"/>
	<path class="st0" d="M127.4,29.6L127.4,29.6L127.4,29.6c0,1,0.2,1.8,0.5,2.6c0.3,0.8,0.8,1.6,1.4,2.2c0.6,0.7,1.3,1.2,2.1,1.6
		c0.8,0.4,1.7,0.6,2.7,0.6c0.9,0,1.7-0.1,2.5-0.3c0.8-0.2,1.6-0.7,2.4-1.3c0.3-0.2,0.5-0.4,0.8-0.6c0.3-0.2,0.6-0.3,1-0.4
		c0.3-0.1,0.7-0.1,1.1,0c0.4,0.1,0.8,0.3,1.2,0.7c0.3,0.2,0.5,0.5,0.6,0.9c0.1,0.3,0.2,0.7,0.2,1c0,0.3-0.1,0.7-0.2,1
		c-0.2,0.4-0.4,0.7-0.7,1c-1.1,1.1-2.3,1.9-3.8,2.5c-1.5,0.6-3,0.8-4.6,0.8c-1.7,0-3.3-0.3-4.8-0.9c-1.5-0.6-2.8-1.5-4-2.6
		c-1.1-1.1-2-2.4-2.7-3.9c-0.7-1.5-1-3.1-1-4.8v0l0-0.1l0,0c0-1.7,0.3-3.3,1-4.8c0.7-1.5,1.5-2.8,2.7-3.9c1.1-1.1,2.4-2,4-2.6
		c1.5-0.6,3.1-1,4.8-1c1.6,0,3.2,0.3,4.6,0.8c1.5,0.6,2.7,1.4,3.8,2.5c0.3,0.3,0.5,0.6,0.7,1c0.2,0.4,0.2,0.7,0.2,1.1
		c0,0.4-0.1,0.7-0.2,1c-0.1,0.3-0.3,0.6-0.6,0.9c-0.4,0.4-0.8,0.6-1.2,0.7c-0.4,0.1-0.7,0.1-1.1,0c-0.3-0.1-0.7-0.2-1-0.4
		c-0.3-0.2-0.6-0.4-0.8-0.6c-0.8-0.6-1.6-1.1-2.4-1.3c-0.8-0.2-1.7-0.4-2.5-0.3c-0.9,0-1.8,0.3-2.6,0.7c-0.8,0.4-1.5,0.9-2.1,1.6
		c-0.6,0.7-1.1,1.4-1.4,2.2C127.6,27.8,127.4,28.7,127.4,29.6z"/>
	<path class="st0" d="M159.8,27.6l6.6,10.1c0.2,0.3,0.3,0.6,0.4,1c0.1,0.3,0,0.7,0,1c-0.1,0.3-0.2,0.6-0.4,0.9
		c-0.2,0.3-0.4,0.5-0.7,0.7c-0.3,0.2-0.6,0.3-0.9,0.4c-0.3,0.1-0.7,0.1-1,0c-0.3-0.1-0.6-0.2-0.9-0.4s-0.5-0.4-0.7-0.7l-6.2-9.4
		l-3.2,3.1v4.9c0,0.4-0.1,0.7-0.2,1c-0.1,0.3-0.3,0.6-0.5,0.8c-0.2,0.2-0.5,0.4-0.8,0.5c-0.3,0.1-0.6,0.2-1,0.2
		c-0.7,0-1.3-0.2-1.8-0.7c-0.5-0.5-0.8-1.1-0.8-1.8v-28c0-0.4,0.1-0.7,0.2-1c0.1-0.3,0.3-0.6,0.6-0.8c0.2-0.2,0.5-0.4,0.8-0.5
		c0.3-0.1,0.7-0.2,1-0.2c0.7,0,1.3,0.2,1.8,0.7c0.5,0.5,0.7,1.1,0.7,1.8v16.3l9.4-9.2c0.3-0.2,0.5-0.4,0.8-0.5
		c0.3-0.1,0.6-0.2,0.9-0.2c0.3,0,0.6,0.1,0.9,0.2c0.3,0.1,0.6,0.3,0.8,0.6v0.1c0.2,0.3,0.4,0.5,0.5,0.9s0.2,0.6,0.2,0.9
		c0,0.3-0.1,0.6-0.2,0.9c-0.1,0.3-0.3,0.6-0.6,0.8L159.8,27.6z"/>
	<path class="st0" d="M177.1,22.6h14.1V11.1c0-0.7,0.3-1.3,0.8-1.8c0.5-0.5,1.1-0.7,1.8-0.7c0.7,0,1.3,0.2,1.8,0.7
		c0.5,0.5,0.7,1.1,0.7,1.8v28c0,0.7-0.2,1.3-0.7,1.8c-0.5,0.5-1.1,0.7-1.8,0.7c-0.7,0-1.3-0.2-1.8-0.7c-0.5-0.5-0.7-1.1-0.7-1.8
		V27.8h-14.1v11.4c0,0.7-0.2,1.3-0.7,1.8c-0.5,0.5-1.1,0.7-1.8,0.7c-0.7,0-1.3-0.2-1.8-0.7c-0.5-0.5-0.7-1.1-0.7-1.8v-28
		c0-0.7,0.2-1.3,0.7-1.8c0.5-0.5,1.1-0.7,1.8-0.7c0.7,0,1.3,0.2,1.8,0.7c0.5,0.5,0.7,1.1,0.7,1.8V22.6z"/>
	<path class="st0" d="M202,19.8c0-0.7,0.2-1.3,0.7-1.8c0.5-0.5,1.1-0.7,1.8-0.7c0.7,0,1.3,0.2,1.8,0.7c0.5,0.5,0.7,1.1,0.7,1.8v9.9
		c0,1,0.1,2,0.4,2.8c0.3,0.8,0.6,1.5,1.1,2.1c0.5,0.6,1.1,1.1,1.7,1.4c0.7,0.3,1.5,0.5,2.3,0.5c0.9,0,1.7-0.2,2.4-0.5
		c0.7-0.3,1.4-0.8,1.9-1.4c0.5-0.6,1-1.3,1.3-2.1c0.3-0.8,0.5-1.7,0.5-2.7v-10c0-0.7,0.2-1.3,0.7-1.8c0.5-0.5,1.1-0.7,1.8-0.7
		c0.3,0,0.7,0.1,1,0.2c0.3,0.1,0.6,0.3,0.8,0.5c0.2,0.2,0.4,0.5,0.6,0.8c0.1,0.3,0.2,0.6,0.2,1v19.2c0,0.4-0.1,0.7-0.2,1
		c-0.1,0.3-0.3,0.6-0.6,0.8c-0.2,0.2-0.5,0.4-0.8,0.6c-0.3,0.1-0.7,0.2-1,0.2c-0.7,0-1.3-0.3-1.8-0.8c-0.5-0.5-0.7-1.1-0.7-1.8v-0.4
		c-0.9,0.9-2,1.6-3.1,2.2c-1.1,0.5-2.3,0.8-3.5,0.8c-1.5,0-2.9-0.3-4.1-0.9c-1.2-0.6-2.3-1.4-3.2-2.5c-0.9-1.1-1.6-2.3-2.1-3.8
		c-0.5-1.5-0.7-3.1-0.7-4.8V19.8z"/>
	<path class="st0" d="M229,29.7v-0.4V11.1c0-0.7,0.2-1.3,0.7-1.8c0.5-0.5,1.1-0.7,1.8-0.7s1.3,0.2,1.8,0.7c0.5,0.5,0.7,1.1,0.7,1.8
		v8.5c0.7-0.5,1.5-1,2.4-1.3c1.5-0.7,3.1-1,4.8-1c1.7,0,3.3,0.3,4.8,1c1.5,0.6,2.8,1.5,3.9,2.6c1.1,1.1,2,2.4,2.6,3.9s1,3.1,1,4.8
		c0,1.7-0.3,3.3-1,4.8c-0.6,1.5-1.5,2.8-2.6,3.9c-1.1,1.1-2.4,2-3.9,2.6c-1.5,0.6-3.1,1-4.8,1c-1.7,0-3.3-0.3-4.8-1
		c-0.9-0.4-1.7-0.8-2.5-1.4c-0.1,0.5-0.3,1-0.7,1.3c-0.5,0.5-1.1,0.7-1.8,0.7s-1.3-0.2-1.8-0.7c-0.5-0.5-0.7-1.1-0.7-1.8V30V29.7z
		 M234.2,29.7c0,1,0.2,1.9,0.6,2.8c0.4,0.9,0.9,1.6,1.5,2.3c0.6,0.6,1.4,1.2,2.3,1.5c0.9,0.4,1.8,0.6,2.8,0.6s1.9-0.2,2.8-0.6
		c0.9-0.4,1.6-0.9,2.3-1.5c0.6-0.6,1.2-1.4,1.5-2.3c0.4-0.9,0.6-1.8,0.6-2.8c0-1-0.2-1.9-0.6-2.8c-0.4-0.9-0.9-1.6-1.5-2.3
		c-0.6-0.6-1.4-1.2-2.3-1.5c-0.9-0.4-1.8-0.6-2.8-0.6c-1,0-1.9,0.2-2.8,0.6c-0.9,0.4-1.6,0.9-2.3,1.5c-0.6,0.6-1.2,1.4-1.5,2.3
		C234.4,27.7,234.2,28.7,234.2,29.7z"/>
	<path class="st0" d="M257.4,29.7v-0.4V11.1c0-0.7,0.2-1.3,0.7-1.8c0.5-0.5,1.1-0.7,1.8-0.7c0.7,0,1.3,0.2,1.8,0.7
		c0.5,0.5,0.7,1.1,0.7,1.8v8.5c0.7-0.5,1.5-1,2.4-1.3c1.5-0.7,3.1-1,4.8-1c1.7,0,3.3,0.3,4.8,1c1.5,0.6,2.8,1.5,3.9,2.6
		c1.1,1.1,2,2.4,2.6,3.9c0.6,1.5,1,3.1,1,4.8c0,1.7-0.3,3.3-1,4.8c-0.6,1.5-1.5,2.8-2.6,3.9c-1.1,1.1-2.4,2-3.9,2.6
		c-1.5,0.6-3.1,1-4.8,1c-1.7,0-3.3-0.3-4.8-1c-0.9-0.4-1.7-0.8-2.5-1.4c-0.1,0.5-0.3,1-0.7,1.3c-0.5,0.5-1.1,0.7-1.8,0.7
		c-0.7,0-1.3-0.2-1.8-0.7c-0.5-0.5-0.7-1.1-0.7-1.8V30V29.7z M262.6,29.7c0,1,0.2,1.9,0.6,2.8c0.4,0.9,0.9,1.6,1.5,2.3
		c0.6,0.6,1.4,1.2,2.3,1.5c0.9,0.4,1.8,0.6,2.8,0.6s1.9-0.2,2.8-0.6c0.9-0.4,1.6-0.9,2.3-1.5c0.6-0.6,1.2-1.4,1.5-2.3
		c0.4-0.9,0.6-1.8,0.6-2.8c0-1-0.2-1.9-0.6-2.8c-0.4-0.9-0.9-1.6-1.5-2.3c-0.6-0.6-1.4-1.2-2.3-1.5c-0.9-0.4-1.8-0.6-2.8-0.6
		c-1,0-1.9,0.2-2.8,0.6c-0.9,0.4-1.6,0.9-2.3,1.5c-0.6,0.6-1.2,1.4-1.5,2.3C262.8,27.7,262.6,28.7,262.6,29.7z"/>
	<path class="st0" d="M290.9,39.1c0,0.7-0.2,1.3-0.7,1.8c-0.5,0.5-1.1,0.7-1.8,0.7c-0.7,0-1.3-0.2-1.8-0.7c-0.5-0.5-0.7-1.1-0.7-1.8
		v-28c0-0.7,0.2-1.3,0.7-1.8c0.5-0.5,1.1-0.7,1.8-0.7c0.7,0,1.3,0.2,1.8,0.7c0.5,0.5,0.7,1.1,0.7,1.8V39.1z"/>
	<path class="st0" d="M300.3,32c0.2,0.7,0.5,1.4,0.9,2c0.4,0.6,0.9,1.2,1.5,1.6c0.6,0.4,1.2,0.8,2,1c0.7,0.3,1.5,0.4,2.3,0.4
		c1.1,0,2-0.2,2.8-0.5c0.7-0.3,1.4-0.8,1.9-1.3c0.4-0.3,0.9-0.5,1.3-0.6c0.4-0.1,0.8,0,1.2,0.1c0.3,0.1,0.5,0.2,0.7,0.4
		c0.2,0.2,0.4,0.4,0.5,0.7c0.3,0.5,0.5,1.1,0.4,1.7c0,0.6-0.4,1.2-1,1.7c-0.4,0.4-0.8,0.7-1.3,1.1c-0.5,0.3-1.1,0.6-1.7,0.9
		c-0.6,0.3-1.4,0.5-2.2,0.6c-0.8,0.1-1.7,0.2-2.7,0.2c-1.7,0-3.3-0.3-4.8-1c-1.5-0.6-2.8-1.5-3.9-2.6c-1.1-1.1-2-2.4-2.7-3.9
		s-1-3.1-1-4.8c0-1.7,0.3-3.3,1-4.8s1.5-2.8,2.7-3.9c1.1-1.1,2.4-2,3.9-2.6c1.5-0.6,3.1-1,4.8-1c1.7,0,3.3,0.3,4.8,1
		c1.5,0.6,2.8,1.5,3.9,2.6c1.1,1.1,2,2.4,2.7,3.9c0.7,1.5,1,3.1,1,4.8c0,0.7-0.2,1.3-0.7,1.8s-1.1,0.7-1.8,0.7H300.3z M314.1,27.7
		c-0.2-0.8-0.5-1.5-0.9-2.2c-0.4-0.7-0.9-1.2-1.6-1.7c-0.6-0.5-1.3-0.9-2.1-1.1c-0.8-0.3-1.6-0.4-2.5-0.4c-0.9,0-1.7,0.1-2.4,0.4
		c-0.8,0.3-1.5,0.7-2.1,1.1c-0.6,0.5-1.1,1.1-1.5,1.7c-0.4,0.7-0.7,1.4-0.9,2.2H314.1z"/>
</g>
<path class="st1" d="M34.5,47.1H11c-5.5,0-10-4.5-10-10V13.6c0-5.5,4.5-10,10-10h23.5c5.5,0,10,4.5,10,10V37
	C44.6,42.6,40.1,47.1,34.5,47.1z"/>
<g>
	<path class="st0" d="M18.8,20.4c0.4-0.6,0.7-1.2,1.1-1.7c3-3.2,6.6-4.3,10.8-3.2c4.2,1.1,6.8,4,7.7,8.3c1.3,6.2-3,12-9.3,12.8
		c-1.9,0.2-3.7,0-5.5-0.8c-0.1-0.1-0.3-0.1-0.3-0.2c0.8-0.8,1.6-1.4,2.2-2.3c3.7-4.9,0.7-12.1-5.3-12.9
		C19.8,20.4,19.3,20.4,18.8,20.4L18.8,20.4z"/>
	<path class="st0" d="M18.8,20.4c-0.8,1.1-1.2,2.3-1.4,3.6c-0.8,4.7,1.3,9,5.5,11.3c0.1,0,0.2,0.1,0.3,0.2c-0.2,0.1-0.3,0.2-0.5,0.3
		c-2.3,1.1-4.5,1.1-6.8,0.1c-0.3-0.1-0.5-0.1-0.8,0c-2.1,1-4.1,0.9-6-0.5c-1.9-1.4-2.6-3.4-2.1-5.6c0.5-2.2,1.9-3.7,4.1-4.3
		c0.4-0.1,0.6-0.3,0.7-0.6c1.3-2.6,3.3-4.1,6.2-4.6C18.2,20.3,18.5,20.4,18.8,20.4C18.8,20.4,18.8,20.4,18.8,20.4z"/>
</g>
</svg>
